<svg width="430" height="340" xmlns="http://www.w3.org/2000/svg">
 <g id="Layer_1">
  <title>Layer 1</title>
  <g stroke="null" id="svg_18">
   <path stroke="null" id="svg_4" fill="#68544f" d="m56.42193,177.04102c-28.15997,0 -51.75518,-21.40268 -51.75518,-47.70506s23.59522,-47.70506 51.75518,-47.70506s51.07419,21.40268 51.07419,47.70506s-22.91423,47.70506 -51.07419,47.70506zm0,0"/>
   <path stroke="null" id="svg_5" fill="#ffbd86" d="m56.42193,157.95899c-16.97951,0 -31.32551,-13.10647 -31.32551,-28.62303s14.346,-28.62303 31.32551,-28.62303c16.89705,0 30.64452,12.84061 30.64452,28.62303s-13.74747,28.62303 -30.64452,28.62303zm0,0"/>
   <path stroke="null" id="svg_6" fill="#3e322e" d="m301.57806,177.04102c-28.15997,0 -51.07419,-21.40268 -51.07419,-47.70506s22.91423,-47.70506 51.07419,-47.70506s51.75518,21.40268 51.75518,47.70506s-23.59522,47.70506 -51.75518,47.70506zm0,0"/>
   <path stroke="null" id="svg_7" fill="#f6a96c" d="m301.57806,157.95899c-16.89705,0 -30.64452,-12.84061 -30.64452,-28.62303s13.74747,-28.62303 30.64452,-28.62303c16.97951,0 31.32551,13.10647 31.32551,28.62303s-14.346,28.62303 -31.32551,28.62303zm0,0"/>
   <path stroke="null" id="svg_8" fill="#725d57" d="m179,4.66675c-88.4621,0 -153.90357,144.89665 -153.90357,220.07933c0,69.64938 52.16484,105.58719 153.90357,105.58719s153.90357,-35.93781 153.90357,-105.58719c0,-75.18267 -65.44147,-220.07933 -153.90357,-220.07933zm0,0"/>
   <path stroke="null" id="svg_9" fill="#53433f" d="m332.90357,224.74607c0,69.64938 -52.16484,105.58719 -153.90357,105.58719l0,-325.66652c88.4621,0 153.90357,144.89665 153.90357,220.07933zm0,0"/>
   <path stroke="null" id="svg_10" fill="#fed2a4" d="m262.76167,186.1994c5.31225,13.1661 8.17187,26.33468 8.17187,38.54668c0,8.39559 -1.63597,15.83709 -4.29076,22.89843l-87.64279,0l-87.64279,-0.19132c-2.6548,-6.87002 -4.29076,-14.31152 -4.29076,-22.70711c0,-12.212 2.85962,-25.38058 8.17187,-38.54668c-5.31225,-8.58691 -8.17187,-18.31924 -8.17187,-28.2404c0,-31.48534 27.58006,-57.24607 61.28903,-57.24607c10.82932,0 21.24633,2.67099 30.64452,7.82413c9.39818,-5.15314 19.81519,-7.82413 30.64452,-7.82413c33.70897,0 61.28903,25.76073 61.28903,57.24607c0,9.92116 -2.85962,19.65349 -8.17187,28.2404zm0,0"/>
   <path stroke="null" id="svg_11" fill="#ffbd86" d="m262.76167,186.1994c5.31225,13.1661 8.17187,26.33468 8.17187,38.54668c0,8.39559 -1.63597,15.83709 -4.29076,22.89843l-87.64279,0l0,-139.10745c9.39818,-5.15314 19.81519,-7.82413 30.64452,-7.82413c33.70897,0 61.28903,25.76073 61.28903,57.24607c0,9.92116 -2.85962,19.65349 -8.17187,28.2404zm0,0"/>
   <path stroke="null" id="svg_12" fill="#68544f" d="m168.78516,205.66405c0,5.26992 -4.57273,9.54101 -10.21484,9.54101s-10.21484,-4.27109 -10.21484,-9.54101s4.57273,-9.54101 10.21484,-9.54101s10.21484,4.27109 10.21484,9.54101zm0,0"/>
   <path stroke="null" id="svg_13" fill="#68544f" d="m158.57032,157.95899c0,5.26992 -4.57273,9.54101 -10.21484,9.54101s-10.21484,-4.27109 -10.21484,-9.54101s4.57273,-9.54101 10.21484,-9.54101s10.21484,4.27109 10.21484,9.54101zm0,0"/>
   <path stroke="null" id="svg_14" fill="#3e322e" d="m219.85935,157.95899c0,5.26992 -4.57273,9.54101 -10.21484,9.54101s-10.21484,-4.27109 -10.21484,-9.54101s4.57273,-9.54101 10.21484,-9.54101s10.21484,4.27109 10.21484,9.54101zm0,0"/>
   <path stroke="null" id="svg_15" fill="#3e322e" d="m209.64451,205.66405c0,5.26992 -4.57273,9.54101 -10.21484,9.54101s-10.21484,-4.27109 -10.21484,-9.54101s4.57273,-9.54101 10.21484,-9.54101s10.21484,4.27109 10.21484,9.54101zm0,0"/>
   <path stroke="null" id="svg_16" fill="#ffbd86" d="m266.64278,247.6445c-12.46263,33.58238 -49.64305,43.88865 -87.64279,43.88865c-38.20456,0 -75.38498,-10.3038 -87.64279,-44.07997c21.86082,-8.96954 55.3623,-13.1661 87.64279,-13.1661c31.666,0 65.5798,4.19656 87.64279,13.35742zm0,0"/>
   <path stroke="null" id="svg_17" fill="#f6a96c" d="m266.64278,247.6445c-12.46263,33.58238 -49.64305,43.88865 -87.64279,43.88865l0,-57.24607c31.666,0 65.5798,4.19656 87.64279,13.35742zm0,0"/>
  </g>
  <g id="svg_49">
   <path id="svg_23" fill="#E2A63B" d="m419.33328,302.21601l0,19.4314c0,6.59924 -17.59809,12.09884 -39.22912,12.09884s-38.86246,-5.31609 -38.86246,-11.91533l0,-2.19963l-0.36666,-15.39846l0.18316,0c2.93296,5.68276 19.06474,10.08237 38.49579,10.08237s39.41263,-5.49925 39.41263,-12.09884l0.36666,0l0,-0.00035z"/>
   <path id="svg_24" fill="#F4B844" d="m379.00417,229.99035l0,19.2479l-0.36666,0c0,6.78275 -18.14791,12.09884 -39.59578,12.09884c-8.24905,0.18316 -16.6816,-0.73333 -24.7475,-2.7498l-0.36666,0.36666c-4.03295,-3.29962 -8.61571,-5.86591 -13.56514,-7.51572l0,-0.36666l-0.54982,-20.34789c1.28315,6.23258 18.33141,11.182 39.04596,11.182s39.77894,-5.31609 39.77894,-11.91533l0.36666,0z"/>
   <path id="svg_25" fill="#FEDB41" d="m379.00417,230.35701l0,0c0,6.59924 -18.14791,11.91533 -39.77894,11.91533s-37.94597,-4.94943 -39.22912,-11.182c0,-0.18316 -0.18316,-0.54982 -0.18316,-0.73333c0,-6.59924 17.59809,-12.09884 39.41263,-12.09884c21.81384,-0.18316 39.77859,5.31609 39.77859,12.09884z"/>
   <path id="svg_26" fill="#F4B844" d="m341.0582,304.23248l0,0l-0.18316,-4.03295l-0.36666,-16.4981c1.28315,6.23258 18.33141,11.182 39.04596,11.182s39.04596,-5.31609 39.59578,-11.73218l0.18316,0l0,19.06474l-0.36666,0c0,6.59924 -17.78159,12.09884 -39.41263,12.09884c-21.63068,-0.00035 -35.56249,-4.39961 -38.49579,-10.08237z"/>
   <path id="svg_27" fill="#E2A63B" d="m314.8444,316.51448c4.94943,-4.58277 8.79922,-10.44903 10.81534,-16.86476l0.91648,0c4.03295,0.36666 8.06589,0.54982 12.4655,0.54982l1.83297,0l0,4.03295l0.36666,15.39846l-2.01647,0c-8.06589,0.18316 -15.94828,-0.73333 -23.83066,-2.56629l-0.54982,-0.55017z"/>
   <path id="svg_28" fill="#F4B844" d="m341.0582,282.23479l0,0.91648l0.36666,17.04827l-1.83332,0c-4.58277,0 -8.79922,-0.18316 -12.83181,-0.54982l-0.91648,0c1.28315,-3.84944 1.83297,-7.88239 1.83297,-11.91533c0,-2.7498 -0.36666,-5.31609 -0.91648,-7.88239l0.91648,0c3.84944,0.36666 7.69923,0.54982 11.91533,0.54982l1.64981,0.91648c-0.18316,0.36631 -0.18316,0.73298 -0.18316,0.91648z"/>
   <path id="svg_29" fill="#E2A63B" d="m314.29458,258.58728c8.06589,2.01647 16.4981,2.93296 24.7475,2.7498c21.44753,0 39.59578,-5.31609 39.59578,-12.09884l0.36666,0l0,21.63103c-19.98122,0 -36.29616,4.76627 -38.31264,10.81534l-1.64981,-0.91648c-4.03295,0 -7.88239,-0.18316 -11.54867,-0.54982l-0.91648,0c-1.64981,-8.43256 -6.04942,-15.94828 -12.64866,-21.44788l0.36631,-0.18316z"/>
   <g transform="matrix(0.350874 0 0 0.350874 0 0)" id="svg_30">
    <path id="svg_31" fill="#FEDB41" d="m931.7966,798.62938l0,0c-5.224,-24.033 -18.286,-45.975 -37.094,-62.171c-11.494,-10.449 -25.078,-17.763 -39.706,-21.943c-10.449,-3.657 -21.943,-5.224 -32.914,-5.224c-62.172,-0.524 -112.85,49.109 -113.372,111.28c-0.522,62.171 49.11,112.849 111.282,113.371c28.735,0 55.902,-10.449 77.322,-29.78c14.629,-13.584 25.6,-30.824 31.347,-49.633c3.657,-10.971 5.224,-21.943 5.224,-33.437c0.001,-7.312 -2.089,-15.149 -2.089,-22.463z"/>
    <path id="svg_32" fill="#FEDB41" d="m1194.5886,805.94338l0,1.045c-1.567,18.286 -52.245,33.437 -112.849,33.437s-107.625,-14.106 -111.282,-31.869l0,-2.612c0,-1.045 0,-2.09 0.522,-3.135c5.747,-17.241 52.245,-30.824 109.192,-30.824l1.567,0c61.65,-0.001 112.85,15.15 112.85,33.958z"/>
   </g>
   <path id="svg_33" fill="#E2A63B" d="m288.44744,283.33443c-3.29962,0 -6.04942,-2.7498 -6.04942,-6.04942c0,-3.29962 2.7498,-6.04942 6.04942,-6.04942s6.04942,2.7498 6.04942,6.04942c0,2.01647 1.64981,3.66628 3.66628,3.66628c2.01647,0 3.66628,-1.64981 3.66628,-3.66628c0,-5.86591 -4.03295,-11.182 -9.7157,-12.83181l0,-1.46665c0,-2.01647 -1.64981,-3.66628 -3.66628,-3.66628s-3.66628,1.64981 -3.66628,3.66628l0,1.46665c-5.86591,1.46665 -9.89886,6.78275 -9.7157,12.83181c0,7.33257 6.04942,13.38198 13.38198,13.38198c3.29962,0 6.04942,2.7498 6.04942,6.04942c0,3.29962 -2.7498,6.04942 -6.04942,6.04942l0,0c-3.29962,0 -6.04942,-2.7498 -6.04942,-6.04942c0,-2.01647 -1.64981,-3.66628 -3.66628,-3.66628s-3.66628,1.64981 -3.66628,3.66628c0,6.04942 4.03295,11.182 9.7157,12.83181l0,2.93296c0,2.01647 1.64981,3.66628 3.66628,3.66628s3.66628,-1.64981 3.66628,-3.66628l0,-2.93296c7.14906,-2.01647 11.182,-9.53219 8.98238,-16.6816c-1.64981,-5.49925 -6.78275,-9.53219 -12.64866,-9.53219z"/>
   <g transform="matrix(0.350874 0 0 0.350874 0 0)" id="svg_34"/>
   <g transform="matrix(0.350874 0 0 0.350874 0 0)" id="svg_35"/>
   <g transform="matrix(0.350874 0 0 0.350874 0 0)" id="svg_36"/>
   <g transform="matrix(0.350874 0 0 0.350874 0 0)" id="svg_37"/>
   <g transform="matrix(0.350874 0 0 0.350874 0 0)" id="svg_38"/>
   <g transform="matrix(0.350874 0 0 0.350874 0 0)" id="svg_39"/>
   <g transform="matrix(0.350874 0 0 0.350874 0 0)" id="svg_40"/>
   <g transform="matrix(0.350874 0 0 0.350874 0 0)" id="svg_41"/>
   <g transform="matrix(0.350874 0 0 0.350874 0 0)" id="svg_42"/>
   <g transform="matrix(0.350874 0 0 0.350874 0 0)" id="svg_43"/>
   <g transform="matrix(0.350874 0 0 0.350874 0 0)" id="svg_44"/>
   <g transform="matrix(0.350874 0 0 0.350874 0 0)" id="svg_45"/>
   <g transform="matrix(0.350874 0 0 0.350874 0 0)" id="svg_46"/>
   <g transform="matrix(0.350874 0 0 0.350874 0 0)" id="svg_47"/>
   <g transform="matrix(0.350874 0 0 0.350874 0 0)" id="svg_48"/>
  </g>
 </g>

</svg>